<?xml version="1.0" standalone="no"?>
<!DOCTYPE svg PUBLIC "-//W3C//DTD SVG 20010904//EN"
 "http://www.w3.org/TR/2001/REC-SVG-20010904/DTD/svg10.dtd">
<svg version="1.0" xmlns="http://www.w3.org/2000/svg"
 width="840.000000pt" height="270.000000pt" viewBox="0 0 840.000000 270.000000"
 preserveAspectRatio="xMidYMid meet">

<g transform="translate(0.000000,270.000000) scale(0.100000,-0.100000)"
fill="#000000" stroke="none">
<path d="M6755 2665 c-16 -9 -34 -20 -38 -24 -20 -20 -27 -102 -27 -345 l-1
-258 -32 6 c-79 15 -246 18 -298 6 -197 -45 -348 -201 -404 -415 -25 -93 -30
-236 -12 -337 43 -245 189 -369 463 -394 91 -8 176 8 258 48 59 30 75 28 76
-10 0 -7 19 -22 43 -32 78 -36 255 -21 279 24 9 16 12 229 11 853 0 457 -4
836 -8 842 -17 29 -73 44 -175 48 -84 3 -111 1 -135 -12z m-77 -1167 c3 -258
11 -243 -132 -236 -104 5 -154 25 -204 82 -95 108 -53 288 82 358 54 28 120
36 191 23 l60 -10 3 -217z"/>
<path d="M203 2621 c-55 -26 -65 -64 -63 -235 2 -72 3 -192 4 -266 9 -760 20
-1183 32 -1195 20 -19 295 -31 331 -13 26 12 28 17 31 84 2 40 -4 278 -12 530
-8 252 -13 460 -11 463 3 2 7 -2 9 -10 79 -236 189 -478 246 -540 34 -38 38
-40 113 -46 l78 -6 42 44 c59 62 110 173 179 389 97 302 89 328 83 -275 -6
-523 -5 -530 15 -563 32 -51 70 -62 219 -62 l130 0 16 30 c14 26 15 124 13
826 l-3 796 -27 23 c-81 70 -414 51 -485 -28 -11 -12 -71 -161 -134 -332 -62
-170 -114 -312 -116 -314 -6 -9 -16 11 -87 182 -124 293 -208 439 -292 503
-36 28 -43 29 -153 32 -98 2 -123 -1 -158 -17z"/>
<path d="M3660 2174 c-229 -60 -378 -239 -425 -510 -19 -109 -19 -199 0 -289
60 -287 345 -501 640 -482 244 17 437 198 506 477 18 70 21 103 16 195 -14
299 -181 537 -426 609 -69 20 -235 20 -311 0z m294 -328 c89 -52 141 -168 141
-316 0 -84 -3 -102 -29 -158 -50 -108 -133 -165 -241 -165 -155 1 -265 142
-265 338 0 82 25 176 59 224 74 104 229 139 335 77z"/>
<path d="M5040 2174 c-229 -60 -378 -239 -425 -510 -19 -109 -19 -199 0 -289
60 -287 345 -501 640 -482 244 17 437 198 506 477 18 70 21 103 16 195 -14
299 -181 537 -426 609 -69 20 -235 20 -311 0z m294 -328 c89 -52 141 -168 141
-316 0 -84 -3 -102 -29 -158 -50 -108 -133 -165 -241 -165 -155 1 -265 142
-265 338 0 82 25 176 59 224 74 104 229 139 335 77z"/>
<path d="M7735 2169 c-317 -46 -501 -275 -396 -494 42 -89 70 -109 269 -199
67 -30 144 -71 171 -90 80 -59 104 -137 55 -175 -56 -44 -112 -22 -235 93 -82
78 -116 93 -155 73 -51 -27 -110 -84 -134 -131 -31 -57 -26 -67 95 -191 127
-130 210 -165 393 -165 205 0 373 84 439 218 24 49 28 68 26 137 -2 124 -41
207 -123 261 -20 14 -102 52 -180 85 -79 32 -164 72 -189 88 -89 57 -101 122
-35 181 29 25 43 30 89 30 68 0 99 -25 156 -121 50 -87 74 -104 135 -95 97 13
194 91 194 156 0 46 -57 146 -114 198 -69 62 -178 119 -263 137 -75 16 -109
17 -198 4z"/>
<path d="M2649 2161 c-9 -6 -20 -27 -24 -47 -6 -33 -9 -36 -33 -30 -15 4 -83
9 -152 12 -96 5 -141 2 -194 -10 -229 -54 -354 -222 -373 -501 -10 -158 32
-277 133 -378 143 -142 416 -210 564 -141 30 14 65 35 78 46 l22 21 0 -29 c0
-85 -59 -174 -172 -259 -75 -58 -81 -60 -207 -85 -175 -35 -197 -56 -188 -179
5 -77 28 -143 60 -169 14 -12 87 -3 257 32 136 29 260 103 386 232 90 93 134
165 163 274 41 155 45 217 45 688 0 440 -1 453 -21 480 -24 32 -53 39 -213 47
-73 4 -121 2 -131 -4z m-73 -362 c32 -6 63 -14 67 -19 9 -8 10 -351 1 -375
-18 -46 -200 -65 -301 -31 -166 56 -205 288 -64 381 73 48 183 65 297 44z"/>
<path d="M3183 870 c-39 -16 -56 -55 -50 -115 3 -30 10 -62 16 -72 8 -14 10
-5 11 40 0 48 4 62 25 82 28 29 77 33 130 11 51 -22 42 -3 -12 26 -59 31 -91
39 -120 28z"/>
<path d="M5730 864 c-25 -8 -58 -25 -75 -39 l-30 -25 37 15 c58 23 110 19 138
-10 18 -19 23 -35 22 -81 0 -42 3 -53 11 -45 15 15 22 134 8 159 -17 31 -59
41 -111 26z"/>
<path d="M3261 740 c-24 -14 -4 -52 84 -157 151 -181 327 -322 520 -418 202
-100 344 -134 585 -142 263 -8 452 32 675 142 142 71 274 166 395 285 110 108
220 242 220 270 0 36 -31 31 -74 -12 -269 -274 -586 -424 -988 -467 -389 -43
-792 51 -1103 257 -90 59 -196 148 -243 203 -30 37 -54 50 -71 39z"/>
</g>
</svg>
